PathFileType	4	(X/Y/Z)	T1_P1_NoVision_Movement_0_0-662.trc
DataRate	CameraRate	NumFrames	NumMarkers	Units	OrigDataRate	OrigDataStartFrame	OrigNumFrames
60	60	5	27	m	60	0	662
Frame#	Time	RHip			RKnee			RAnkle			RBigToe			RSmallToe			RHeel			LHip			LKnee			LAnkle			LBigToe			LSmallToe			LHeel			Neck			Head			Nose			RShoulder			RElbow			RWrist			RThumb			RIndex			RPinky			LShoulder			LElbow			LWrist			LThumb			LIndex			LPinky		
		X1	Y1	Z1	X2	Y2	Z2	X3	Y3	Z3	X4	Y4	Z4	X5	Y5	Z5	X6	Y6	Z6	X7	Y7	Z7	X8	Y8	Z8	X9	Y9	Z9	X10	Y10	Z10	X11	Y11	Z11	X12	Y12	Z12	X13	Y13	Z13	X14	Y14	Z14	X15	Y15	Z15	X16	Y16	Z16	X17	Y17	Z17	X18	Y18	Z18	X19	Y19	Z19	X20	Y20	Z20	X21	Y21	Z21	X22	Y22	Z22	X23	Y23	Z23	X24	Y24	Z24	X25	Y25	Z25	X26	Y26	Z26	X27	Y27	Z27
1	0.016666666666666666	-74.43373430111087	3875.2335447584055	-561.6127043290294	264.4953802799622	3974.8554750400467	-507.2693410588795	618.1543526287155	4144.61912219741	-524.2546877999912	710.1524448408571	4099.228628325245	-484.85742977966845	702.4066945910288	4068.762674877789	-540.786974530788	655.9749798717482	4193.362139915643	-531.9056348824151	-115.19762044619976	3906.5984025864336	-346.51558976847275	227.25301091526248	4007.529621553572	-352.74251993617145	584.0608030022958	4197.2464727118895	-381.8679904297816	681.2898875602723	4160.881588074563	-345.01254066107026	652.2010311536843	4200.435312399975	-312.16157297510193	616.35319501798	4256.925853327745	-424.302252853743	-669.8061057262394	3718.8616184477105	-497.9824491278157	-907.0409910286199	3542.0727622887975	-431.01670509013485	-745.3466152527413	3566.3460610302654	-405.14444713406067	-562.1611539500791	3661.379023901341	-618.8370584083294	-311.83271231973674	3772.925522528366	-713.6504403974492	-50.20793665428685	3774.4252336912414	-645.9547102351871	70.1710646443973	3793.327941548526	-575.0562738471626	77.42868875901262	3796.4292883449375	-577.9615656439814	73.88829160489698	3785.8510950565537	-597.520219595876	-631.090622168233	3862.447660479825	-378.62368928209264	-411.8846827545885	3998.0173074210293	-329.39422764948216	-163.2602936991951	3959.7649824641926	-227.89069601354387	-34.16248439241491	3953.5549933271786	-234.12566182494507	-8.30333910447917	3970.5605946482938	-214.6376701765588	-25.534403709775756	3990.0658785131545	-209.73342479648238
2	0.03333333333333333	-79.57531484333077	3872.3725770754513	-560.2921814626612	259.5250107873678	3965.3382337256303	-517.1089364431931	618.1435260535309	4144.113401556101	-524.3564799894708	703.8341253652632	4096.036469026525	-485.4018477041224	697.2271361339579	4068.9356079308463	-541.317055688688	651.3035802706756	4161.256722023647	-524.7742309791143	-120.5623630924025	3904.6636632223385	-347.13119247161563	227.09097227936266	4007.8148571524066	-352.80454851496637	577.401095549483	4194.023521804766	-382.54187512024737	680.1371542247756	4187.1965243368295	-350.6446677735104	646.0494398170674	4197.621102287957	-313.0371941430134	610.3793333272365	4251.960327789549	-421.9009851228495	-667.364459830441	3701.106952213545	-484.4072487675412	-899.7733713804497	3529.1442290193636	-419.58923023243653	-745.1101205378077	3566.869443949536	-405.1569307843196	-562.2394512694991	3661.1579174421017	-618.8463296247489	-311.8676540558708	3773.5451007841893	-713.6840690611594	-50.30677098223859	3773.628973527632	-645.212415350847	70.2847260674669	3819.110681682696	-581.556571570035	77.15054954725879	3796.3962475696662	-577.641668695747	79.07798417242836	3788.6142767037677	-598.8971142910483	-636.0463377489311	3860.8278873081344	-378.4797315430711	-412.164878677907	3998.1078029433575	-329.43555809158687	-158.74919178204735	3959.4390547632233	-227.43015078225227	-39.72287517813782	3952.3380936363283	-235.4234389610629	-13.391044808715666	3967.69799288035	-213.69895300456048	-31.16126612787211	3988.0768672456547	-210.6276655047289
3	0.05	-74.52195257337361	3875.6988662805115	-561.8910259194621	265.4550160395319	3968.1408475340745	-516.5798525579356	624.4766214779379	4148.105040082072	-524.0408970238101	702.1675110184988	4095.244278636097	-478.8967621120681	695.8753588369935	4086.424169335475	-554.4383607599098	656.1285124779557	4193.10318528778	-531.943403601595	-120.58753833316138	3904.7387465663946	-347.19927392064795	227.27992815104506	4008.3249746578635	-353.1059546447396	583.9371759663134	4197.384307610266	-381.832075295283	681.5201537245496	4161.805574573008	-345.38584530179116	651.5160940546881	4221.6980519837725	-328.36788863350426	616.2532247377833	4256.652468858005	-424.1739092536208	-669.779577023244	3718.8594888764783	-497.95022187442135	-907.0412079403371	3542.367174100148	-430.9360954561549	-745.2789281649672	3567.092091061931	-405.2603280592471	-562.2322570356996	3661.1661897394542	-618.8542211936547	-311.948511055271	3773.331295248189	-713.5990415289979	-51.21847842121503	3754.577997107537	-630.3210058214996	65.08091513242259	3817.2248416567045	-581.91270993595	77.1130290948862	3796.4817519176077	-577.4101870760098	79.27034945723581	3788.63601153738	-598.8404807058415	-636.0862421376652	3860.9916165276636	-378.539036044913	-422.0408517165551	3993.7199559628334	-328.3750122271622	-164.02261939334977	3958.598702013108	-227.7105290545728	-40.20305550530834	3949.857794649126	-234.67711240889398	-19.413898284072307	3961.727305861444	-211.4278886107459	-32.101569256046716	3986.996216042692	-210.12699107467301
4	0.06666666666666667	-84.92559188782383	3869.5719206944577	-560.4697071632104	259.42085434712925	3965.4437172244584	-517.140651921111	622.792748507996	4166.79383029121	-539.4917637469766	702.2259978167614	4095.209659972561	-478.5816568822328	695.6996497406477	4068.2245021035424	-534.3932676436034	655.8369011515612	4193.472275521096	-532.1433561504168	-126.070856600602	3904.130661081593	-347.56399695357123	223.55506632084914	4035.6151373713087	-358.34213626248913	577.7125803374879	4193.282795303733	-380.0801682235135	685.8533118483313	4190.3766812583135	-349.80362055923746	651.3854697249176	4228.771302661716	-323.58620588236533	610.3075032020366	4252.345380329775	-422.2878946080656	-669.7901078005714	3718.7626159687284	-497.938932644166	-903.6365763243482	3526.696551423469	-418.7369921418356	-745.1378913263692	3566.8413964033407	-405.00340104534945	-562.3155551383431	3660.820154434052	-618.6012949622188	-312.08565485164144	3773.236662081965	-713.6322748691434	-51.25476419300017	3753.821581978079	-629.4703289635331	63.537480605115704	3799.0626674502623	-567.6739806859405	76.83931795690357	3795.2730861363675	-576.1486133211611	79.20894108256208	3788.2489874825924	-598.2934662102738	-636.1502478294822	3860.983781714871	-378.62175137956393	-421.9661103832026	3993.684958556508	-328.38761069595233	-163.56041382636428	3979.1242738008273	-240.96440296133022	-40.34298177535798	3949.6496870662727	-234.35775200412067	-19.612704110856807	3961.800219785246	-211.39919548420445	-32.132800784368065	3989.35035900119	-209.90342201797117
5	0.08333333333333333	-79.83844947039535	3871.8222227703923	-560.0843678385263	261.42246975535147	3994.1851421209576	-523.7233382815094	624.3002844394209	4147.31695440473	-523.8059082159348	696.6064891584248	4095.5987319256565	-479.3902475351805	695.4257371607474	4067.404731177605	-534.2212338472194	651.2839851360116	4160.965709718861	-524.6914933670143	-126.08205830478411	3904.0596805378977	-347.52402616989383	221.65981163210512	4005.951336057891	-353.85088741368116	577.7453513224013	4194.408951491771	-382.7901194005874	680.1508450383665	4187.364800813248	-350.70500696661577	651.3699840126354	4228.940694183081	-323.7775872142437	616.2727928489315	4256.60980483408	-424.3233292109218	-672.613137041252	3699.609887890462	-484.71477924554483	-908.3309215017119	3525.94333314013	-419.07676009964547	-754.5972805954017	3563.0424130517704	-404.42585634554683	-562.281280321218	3660.7959609100667	-618.5428117233462	-311.9916170789847	3773.262070214576	-713.6288163441938	-51.8670720776748	3754.7090244418764	-623.5602834555142	57.1014068549585	3797.303052897326	-560.7631073084508	71.73772854585472	3791.7719452383835	-573.7586417951804	73.34280923537118	3811.306260023381	-597.7680873736957	-636.1460774998308	3861.1448491875744	-378.69614178947455	-416.60041818161216	3999.170457961306	-335.8145497337778	-164.28229252805144	3958.220724317324	-227.60620367175525	-45.36056794044894	3948.182174957541	-234.2055597199641	-24.7926420142618	3961.1509701598084	-211.498553944178	-37.176321915008415	3987.474741400607	-210.8029861173227
